<?xml version="1.0" encoding="UTF-8"?>
<svg version="1.1" xmlns="http://www.w3.org/2000/svg" width="289" height="289">
<path d="M0 0 C95.37 0 190.74 0 289 0 C289 95.37 289 190.74 289 289 C193.63 289 98.26 289 0 289 C0 193.63 0 98.26 0 0 Z " fill="#FEFEFD" transform="translate(0,0)"/>
<path d="M0 0 C13.60235394 11.77639692 20.88572589 25.93506102 22.33984375 43.9296875 C22.45967398 47.28649898 22.45737358 50.63749776 22.4375 53.99609375 C22.43608505 54.91559311 22.4346701 55.83509247 22.43321228 56.78245544 C22.42766687 59.68573421 22.41512492 62.58893251 22.40234375 65.4921875 C22.39732168 67.47460825 22.39276002 69.45703023 22.38867188 71.43945312 C22.37857122 76.26958631 22.35898565 81.09954808 22.33984375 85.9296875 C6.49984375 86.4246875 6.49984375 86.4246875 -9.66015625 86.9296875 C-9.71623047 82.55589844 -9.71623047 82.55589844 -9.7734375 78.09375 C-9.81977148 75.24065038 -9.8709618 72.38767581 -9.92260742 69.53466797 C-9.9556713 67.56599658 -9.9837597 65.59723461 -10.0065918 63.62841797 C-10.04048133 60.78313936 -10.09281096 57.93867711 -10.1484375 55.09375 C-10.15482742 54.22666412 -10.16121735 53.35957825 -10.1678009 52.46621704 C-10.40108841 42.56488062 -13.02514794 33.45530095 -19.66015625 25.9296875 C-27.51538865 19.58798735 -35.91466962 19.02759393 -45.70703125 19.66455078 C-52.40878834 20.57431431 -57.14166236 24.92101349 -61.16015625 30.0546875 C-62.03379943 31.31943839 -62.87008143 32.61111668 -63.66015625 33.9296875 C-64.03140625 34.51492187 -64.40265625 35.10015625 -64.78515625 35.703125 C-67.32914108 42.17665782 -66.59786711 50.86488988 -64.59765625 57.40234375 C-59.39296867 68.58959342 -50.5031154 73.93147159 -40.03515625 79.8046875 C-37.90228205 81.0236585 -35.77076508 82.24500742 -33.640625 83.46875 C-32.10414307 84.35095215 -32.10414307 84.35095215 -30.53662109 85.25097656 C-23.74233692 89.21613511 -17.20380862 93.56725259 -10.66015625 97.9296875 C-10.27394399 100.71867069 -10.05783701 103.25888419 -9.97265625 106.0546875 C-9.86953125 108.6534375 -9.76640625 111.2521875 -9.66015625 113.9296875 C6.17984375 114.4246875 6.17984375 114.4246875 22.33984375 114.9296875 C22.77734375 130.3671875 22.77734375 130.3671875 22.90795898 135.24389648 C22.94606689 136.50016846 22.9841748 137.75644043 23.0234375 139.05078125 C23.06009521 140.3442749 23.09675293 141.63776855 23.13452148 142.97045898 C23.00657155 145.81523758 23.00657155 145.81523758 24.33984375 146.9296875 C26.33949357 147.01726753 28.34220485 147.03665326 30.34375 147.02734375 C31.55869141 147.02412109 32.77363281 147.02089844 34.02539062 147.01757812 C35.30478516 147.00919922 36.58417969 147.00082031 37.90234375 146.9921875 C39.82723633 146.98541992 39.82723633 146.98541992 41.79101562 146.97851562 C44.97400397 146.96668295 48.15690137 146.95019818 51.33984375 146.9296875 C48.43981849 166.18530547 40.82429768 182.9096972 25.33203125 195.34375 C18.10491899 200.55075377 10.57569593 204.52099033 2.33984375 207.9296875 C1.24736328 208.40535156 1.24736328 208.40535156 0.1328125 208.890625 C-10.17999076 213.13336687 -21.11957452 213.32911158 -32.10180664 213.35522461 C-34.45890439 213.36711811 -36.81337336 213.41644852 -39.16992188 213.46679688 C-53.94607232 213.62484714 -65.58614127 209.75448508 -77.66015625 200.9296875 C-78.3665625 200.43082031 -79.07296875 199.93195313 -79.80078125 199.41796875 C-90.3292417 191.19001836 -97.89530521 177.08131754 -99.66015625 163.9296875 C-100.18772998 155.24300315 -99.88683739 146.63424316 -99.66015625 137.9296875 C-89.10015625 137.9296875 -78.54015625 137.9296875 -67.66015625 137.9296875 C-67.57765625 141.1884375 -67.49515625 144.4471875 -67.41015625 147.8046875 C-67.10922677 155.49752865 -66.60192501 162.14187631 -62.66015625 168.9296875 C-62.12390625 170.0021875 -61.58765625 171.0746875 -61.03515625 172.1796875 C-56.41832361 177.52549372 -49.55102286 181.64199918 -42.4375 182.16796875 C-33.33537565 182.34389994 -25.41909752 182.2311926 -18.34375 175.8359375 C-11.32844697 168.30609525 -10.0094307 161.99890037 -10.28515625 151.94921875 C-10.87220185 142.96951766 -16.32397399 135.95635426 -22.66015625 129.9296875 C-29.17275389 124.92033267 -36.18455127 120.72582924 -43.28515625 116.6171875 C-45.2208492 115.48313031 -47.15573944 114.34770196 -49.08984375 113.2109375 C-50.03311523 112.65664062 -50.97638672 112.10234375 -51.94824219 111.53125 C-61.99811515 105.59614318 -71.86444969 99.66271575 -80.66015625 91.9296875 C-81.60761719 91.12337891 -81.60761719 91.12337891 -82.57421875 90.30078125 C-93.35321481 80.44773419 -99.49712264 65.02685157 -100.25170898 50.56201172 C-100.51548882 33.74556555 -93.66870159 16.31142909 -82.0859375 4.18359375 C-78.23432615 0.6048824 -74.14069759 -2.3322039 -69.66015625 -5.0703125 C-69.015625 -5.46992187 -68.37109375 -5.86953125 -67.70703125 -6.28125 C-47.15116966 -17.76834912 -18.12402871 -14.10533805 0 0 Z " fill="#13A6BA" transform="translate(108.66015625,45.0703125)"/>
<path d="M0 0 C2.72792935 2.12686017 3.72491552 4.84136968 5 8 C5.50144531 9.21945313 6.00289062 10.43890625 6.51953125 11.6953125 C7.32024603 13.66695462 8.10712865 15.64015429 8.85864258 17.63110352 C10.26813716 21.35574733 11.93717814 24.60649771 14 28 C15.03487511 30.32418085 16.02803526 32.65003826 17 35 C22.40697838 47.69571671 27.99974413 60.29800557 33.8125 72.8125 C34.35116699 73.97354248 34.88983398 75.13458496 35.44482422 76.33081055 C38.18242086 82.20030262 40.97625036 88.02912342 43.9284668 93.79394531 C45.45980277 96.94663427 46.71011973 100.19258856 47.98046875 103.45703125 C49.39118943 106.97572537 50.98106471 110.40309251 52.5625 113.84765625 C54.33812847 117.74149369 56.08264679 121.64814427 57.8125 125.5625 C58.12678955 126.26584473 58.4410791 126.96918945 58.76489258 127.69384766 C61 132.76952041 61 132.76952041 61 135 C61.66 135 62.32 135 63 135 C63 90.78 63 46.56 63 1 C73.89 1 84.78 1 96 1 C96 72.94 96 144.88 96 219 C85.77 219 75.54 219 65 219 C60.14876885 210.04388095 55.50624854 201.17856033 51.52294922 191.80810547 C49.6821049 187.49724064 47.69275589 183.30376382 45.5625 179.125 C43.03155689 174.14116049 40.67939844 169.1196638 38.4375 164 C34.8495303 155.81842345 31.09988064 147.71570203 27.3125 139.625 C27.01679108 138.9931781 26.72108215 138.3613562 26.41641235 137.71038818 C25.20544372 135.12330203 23.99431245 132.53629222 22.7827301 129.94949341 C17.49109169 118.6473168 12.25186543 107.32068771 7 96 C-3.89 95.67 -14.78 95.34 -26 95 C-25.9375 80.625 -25.9375 80.625 -25.90991211 76.09228516 C-25.90741455 74.91972168 -25.90491699 73.7471582 -25.90234375 72.5390625 C-25.89710693 71.33459473 -25.89187012 70.13012695 -25.88647461 68.88916016 C-25.79912109 66.0586323 -25.79912109 66.0586323 -27 64 C-31.29165262 63.97108051 -35.58328036 63.95322882 -39.875 63.9375 C-41.09832031 63.92912109 -42.32164062 63.92074219 -43.58203125 63.91210938 C-44.74863281 63.90888672 -45.91523438 63.90566406 -47.1171875 63.90234375 C-48.19597168 63.89710693 -49.27475586 63.89187012 -50.38623047 63.88647461 C-52.98232186 63.82116894 -52.98232186 63.82116894 -55 65 C-55.16563352 58.79181028 -54.72878392 53.287807 -53.3125 47.25 C-53.13170898 46.47068115 -52.95091797 45.6913623 -52.76464844 44.88842773 C-48.89152901 28.83015787 -42.38385265 15.10083073 -28 6 C-19.37731962 1.68327736 -9.77065671 -1.92161176 0 0 Z " fill="#FA9023" transform="translate(186,36)"/>
<path d="M0 0 C10.56 0 21.12 0 32 0 C32.0825 3.25875 32.165 6.5175 32.25 9.875 C32.55092948 17.56784115 33.05823124 24.21218881 37 31 C37.53625 32.0725 38.0725 33.145 38.625 34.25 C43.24183264 39.59580622 50.10913339 43.71231168 57.22265625 44.23828125 C66.31505303 44.41402442 74.12164424 44.25185459 81.28125 38.01171875 C87.27090076 31.72909594 89.91918901 25.6464879 91 17 C93 20 93 20 92.8125 22.1875 C90.75541844 29.30816695 88.41932168 35.7462687 83 41 C90.02518661 39.13415567 96.72516237 37.27483763 102 32 C102.99 32 103.98 32 105 32 C105.2475 31.38125 105.495 30.7625 105.75 30.125 C107 28 107 28 109 27.0625 C111.74986668 25.60163333 112.08833304 23.88694538 113 21 C114.485 21.495 114.485 21.495 116 22 C118.091496 18.67262 119.51799926 15.70500184 121 12 C129.58 12 138.16 12 147 12 C144.79304224 31.86261981 144.79304224 31.86261981 138 41 C137.01 41.495 137.01 41.495 136 42 C135.43554035 43.33657025 134.92295523 44.69525169 134.4375 46.0625 C128.43554267 59.8560892 111.00923657 66.44359378 97.86328125 71.7734375 C87.97185093 75.15000915 77.89949302 75.40094843 67.55834961 75.42553711 C65.20125186 75.43743061 62.84678289 75.48676102 60.49023438 75.53710938 C45.71408393 75.69515964 34.07401498 71.82479758 22 63 C21.29359375 62.50113281 20.5871875 62.00226563 19.859375 61.48828125 C9.33091455 53.26033086 1.76485104 39.15163004 0 26 C-0.52757373 17.31331565 -0.22668114 8.70455566 0 0 Z " fill="#0881A9" transform="translate(9,183)"/>
<path d="M0 0 C0 31.35 0 62.7 0 95 C-10.89 95 -21.78 95 -33 95 C-33 63.98 -33 32.96 -33 1 C-22.01638212 0.31352388 -11.00504935 0 0 0 Z " fill="#FC701D" transform="translate(193,160)"/>
<path d="M0 0 C15.83724242 8.06854347 21.73111451 28.89994428 28.26953125 44.15625 C17.70953125 44.15625 7.14953125 44.15625 -3.73046875 44.15625 C-4.04296875 30.34375 -4.04296875 30.34375 -4.1184082 25.99682617 C-4.151521 24.86736572 -4.18463379 23.73790527 -4.21875 22.57421875 C-4.24493408 21.41688232 -4.27111816 20.2595459 -4.2980957 19.06713867 C-4.52196418 16.20553382 -4.52196418 16.20553382 -5.91601562 14.28710938 C-8.42182204 12.7253635 -10.33072825 12.7223807 -13.2734375 12.64453125 C-14.8831543 12.59135742 -14.8831543 12.59135742 -16.52539062 12.53710938 C-17.64494141 12.51455078 -18.76449219 12.49199219 -19.91796875 12.46875 C-21.04912109 12.43458984 -22.18027344 12.40042969 -23.34570312 12.36523438 C-26.14052615 12.28268686 -28.93503273 12.21355818 -31.73046875 12.15625 C-30.99413388 8.75512577 -30.25056603 7.33513848 -27.54296875 5.09375 C-26.97191406 4.60777344 -26.40085938 4.12179688 -25.8125 3.62109375 C-18.07272976 -1.82433559 -9.09236799 -2.80965878 0 0 Z " fill="#F4691E" transform="translate(164.73046875,85.84375)"/>
<path d="M0 0 C10.56 0 21.12 0 32 0 C32.0825 3.25875 32.165 6.5175 32.25 9.875 C32.55092948 17.56784115 33.05823124 24.21218881 37 31 C37.53625 32.0725 38.0725 33.145 38.625 34.25 C43.24441035 39.59879094 50.05345869 43.60190555 57.13671875 44.31640625 C58.30847656 44.39761719 59.48023438 44.47882813 60.6875 44.5625 C61.86699219 44.64628906 63.04648438 44.73007813 64.26171875 44.81640625 C65.61716797 44.90728516 65.61716797 44.90728516 67 45 C67 45.33 67 45.66 67 46 C54.27403999 46.47656161 47.83319047 45.03216401 38 37 C36.6078125 35.948125 36.6078125 35.948125 35.1875 34.875 C28.20378529 25.69640353 29.75290363 12.87224034 30 2 C20.43 2 10.86 2 1 2 C1.28875 5.691875 1.5775 9.38375 1.875 13.1875 C1.96120605 14.3427417 2.04741211 15.4979834 2.13623047 16.68823242 C2.21244629 17.60967041 2.28866211 18.5311084 2.3671875 19.48046875 C2.44050293 20.41785889 2.51381836 21.35524902 2.58935547 22.32104492 C3.02074355 25.13532636 3.88044027 27.392046 5 30 C5.72797677 33.04390285 6.38219971 36.09689382 7.0234375 39.16015625 C8.1320883 42.38411276 9.55279394 43.69304883 12 46 C13.25 49.75 13.25 49.75 14 53 C14.99 53 15.98 53 17 53 C17 53.66 17 54.32 17 55 C17.66 55 18.32 55 19 55 C19 55.66 19 56.32 19 57 C19.639375 57.268125 20.27875 57.53625 20.9375 57.8125 C23 59 23 59 24 62 C40.79394622 74.72510414 64.91905139 74.43609674 84.75 71.75 C92.18392225 70.67393243 99.13437658 69.16751245 106 66 C106 65.34 106 64.68 106 64 C107.98 64 109.96 64 112 64 C112.33 63.01 112.66 62.02 113 61 C113.99 61 114.98 61 116 61 C116.33 60.01 116.66 59.02 117 58 C118.32 58 119.64 58 121 58 C121 57.01 121 56.02 121 55 C122.32 55 123.64 55 125 55 C125.37125 53.5459375 125.37125 53.5459375 125.75 52.0625 C127 49 127 49 129 48 C129.66 48 130.32 48 131 48 C131.66 48.66 132.32 49.32 133 50 C114.83497981 68.08131042 92.70270595 75.36575005 67.55834961 75.42553711 C65.20125186 75.43743061 62.84678289 75.48676102 60.49023438 75.53710938 C45.71408393 75.69515964 34.07401498 71.82479758 22 63 C21.29359375 62.50113281 20.5871875 62.00226563 19.859375 61.48828125 C9.33091455 53.26033086 1.76485104 39.15163004 0 26 C-0.52757373 17.31331565 -0.22668114 8.70455566 0 0 Z " fill="#287391" transform="translate(9,183)"/>
<path d="M0 0 C0 31.35 0 62.7 0 95 C-10.89 95 -21.78 95 -33 95 C-33 63.98 -33 32.96 -33 1 C-22.01638212 0.31352388 -11.00504935 0 0 0 Z M-31 2 C-31 32.03 -31 62.06 -31 93 C-21.43 93 -11.86 93 -2 93 C-2 62.97 -2 32.94 -2 2 C-11.57 2 -21.14 2 -31 2 Z " fill="#DD8A55" transform="translate(193,160)"/>
<path d="M0 0 C2.72792935 2.12686017 3.72491552 4.84136968 5 8 C5.50144531 9.21945313 6.00289062 10.43890625 6.51953125 11.6953125 C7.32024603 13.66695462 8.10712865 15.64015429 8.85864258 17.63110352 C10.26813716 21.35574733 11.93717814 24.60649771 14 28 C15.03487511 30.32418085 16.02803526 32.65003826 17 35 C22.40697838 47.69571671 27.99974413 60.29800557 33.8125 72.8125 C34.35116699 73.97354248 34.88983398 75.13458496 35.44482422 76.33081055 C38.18242086 82.20030262 40.97625036 88.02912342 43.9284668 93.79394531 C45.45539355 96.93755665 46.70381266 100.17244929 47.96484375 103.4296875 C49.07545156 106.18734764 50.30559054 108.8685866 51.5625 111.5625 C53.74595514 116.29331946 55.45108244 121.02715943 57 126 C56.01 126.495 56.01 126.495 55 127 C54.54109375 125.865625 54.0821875 124.73125 53.609375 123.5625 C52.98974877 122.04159926 52.36994772 120.52076972 51.75 119 C51.29947266 117.88431641 51.29947266 117.88431641 50.83984375 116.74609375 C49.01367629 112.27781166 47.03277799 107.97776544 44.74316406 103.7265625 C44 102 44 102 44 99 C43.34 99 42.68 99 42 99 C39.72623708 94.03906272 38.21376034 89.32187227 37 84 C36.34 84 35.68 84 35 84 C34.505 80.535 34.505 80.535 34 77 C33.34 77 32.68 77 32 77 C31.31640625 75.07942708 30.6328125 73.15885417 29.94921875 71.23828125 C29.03512377 68.92437152 29.03512377 68.92437152 27.55859375 66.671875 C25.7236015 63.526174 24.57342559 60.37470223 23.375 56.9375 C22.73691406 55.12572266 22.73691406 55.12572266 22.0859375 53.27734375 C21.2824084 50.85230448 20.55857078 48.48874315 20 46 C19.34 46 18.68 46 18 46 C17.81824219 45.38511719 17.63648438 44.77023438 17.44921875 44.13671875 C17.19785156 43.32847656 16.94648438 42.52023438 16.6875 41.6875 C16.44386719 40.88699219 16.20023438 40.08648437 15.94921875 39.26171875 C15.16465347 36.97520323 15.16465347 36.97520323 13.5546875 35.60546875 C11.28804148 33.26478655 10.54829855 30.66837911 9.4375 27.625 C8.81681641 25.94277344 8.81681641 25.94277344 8.18359375 24.2265625 C7.44112091 22.20252762 6.70339963 20.1767366 5.97265625 18.1484375 C5.19785949 15.83627578 5.19785949 15.83627578 3 15 C1.96484375 12.75 1.96484375 12.75 0.9375 10 C-0.11428072 6.74402427 -0.11428072 6.74402427 -2 4 C-8.86316733 3.34154114 -14.93822948 4.22121418 -21.4921875 6.24609375 C-23.97967161 6.99388882 -26.4471772 7.52878002 -29 8 C-26.65276062 5.31524908 -24.43528366 4.15282986 -21.125 2.875 C-20.28195313 2.54242188 -19.43890625 2.20984375 -18.5703125 1.8671875 C-12.62277054 -0.13943 -6.21345542 -1.2220109 0 0 Z " fill="#E5A651" transform="translate(186,36)"/>
<path d="M0 0 C0.66 0 1.32 0 2 0 C2.54269531 1.16917969 3.08539063 2.33835938 3.64453125 3.54296875 C4.36704494 5.09121237 5.08970913 6.63938576 5.8125 8.1875 C6.34713867 9.34088867 6.34713867 9.34088867 6.89257812 10.51757812 C8.74854571 14.48492168 10.69386762 18.26949173 13 22 C14.04809681 24.32404075 15.04150431 26.63993043 16 29 C16.35578125 29.85851562 16.7115625 30.71703125 17.078125 31.6015625 C20 38.74163732 20 38.74163732 20 41 C20.66 41 21.32 41 22 41 C24.5734738 44.59884227 25.80413296 48.20712035 27 52.4375 C28.27290305 56.92978703 29.89259431 60.83907116 32 65 C32 65.66 32 66.32 32 67 C32.99 67.33 33.98 67.66 35 68 C35 68.66 35 69.32 35 70 C35.66 70 36.32 70 37 70 C37 70.66 37 71.32 37 72 C37.928125 71.835 38.85625 71.67 39.8125 71.5 C46.97589522 70.4953775 54.25029636 70.08120924 61 73 C62.10122813 69.69631562 62.08367473 67.33145312 62.03515625 63.85546875 C61.98230566 56.37855193 62.14159589 48.92202615 62.37231445 41.44897461 C62.43776024 39.30397066 62.49734371 37.1588536 62.55664062 35.01367188 C62.78204047 27.31389367 63.16813041 19.66238653 64 12 C64.33 12 64.66 12 65 12 C65 32.46 65 52.92 65 74 C54.77 74 44.54 74 34 74 C27.50983904 60.57208078 21.09364861 47.14140709 15.0234375 33.51953125 C13.16274662 29.34667131 11.25183581 25.19931948 9.3125 21.0625 C8.48492187 19.29712891 8.48492187 19.29712891 7.640625 17.49609375 C6.82851562 15.76552734 6.82851562 15.76552734 6 14 C4.85039384 11.54338595 3.7055466 9.08468672 2.5625 6.625 C2.06878906 5.56539062 1.57507813 4.50578125 1.06640625 3.4140625 C0 1 0 1 0 0 Z " fill="#D77232" transform="translate(216,180)"/>
<path d="M0 0 C9.9 0 19.8 0 30 0 C30 36.63 30 73.26 30 111 C29.67 111 29.34 111 29 111 C28.2027981 106.79244662 27.87368175 102.82022415 27.87060547 98.5402832 C27.86593765 96.63667526 27.86593765 96.63667526 27.86117554 94.6946106 C27.8629798 93.31333387 27.8649896 91.9320574 27.8671875 90.55078125 C27.86617224 89.10586522 27.864833 87.66094939 27.8631897 86.21603394 C27.86050311 82.37233842 27.86492642 78.52868356 27.87142944 74.68499374 C27.8749946 72.31608713 27.87661651 69.94718655 27.87768555 67.57827759 C27.89017187 45.37402707 28.03834401 23.1871429 29 1 C27.31390625 1.24556641 27.31390625 1.24556641 25.59375 1.49609375 C20.88279524 2.0849631 16.24126159 2.11269251 11.5 2.0625 C10.67757813 2.05798828 9.85515625 2.05347656 9.0078125 2.04882812 C7.00517604 2.03718489 5.00257773 2.01925556 3 2 C2.2142205 6.14942459 1.88167459 10.04994454 1.90234375 14.27050781 C1.90564697 15.4932843 1.9089502 16.71606079 1.91235352 17.97589111 C1.92065186 19.2883783 1.9289502 20.60086548 1.9375 21.953125 C1.94191655 23.33632229 1.94573018 24.71952163 1.94897461 26.10272217 C1.9622641 31.21711598 1.98620876 36.33144866 2.01037598 41.44580078 C2.03360276 46.44823357 2.0520919 51.45064818 2.0625 56.453125 C2.06402069 57.14171097 2.06554138 57.83029694 2.06710815 58.53974915 C2.08220871 69.0555732 1.82322888 79.51485714 1 90 C0.67 90 0.34 90 0 90 C0 60.3 0 30.6 0 0 Z " fill="#F4A42D" transform="translate(250,38)"/>
<path d="M0 0 C10.89 0 21.78 0 33 0 C33.4375 15.4375 33.4375 15.4375 33.56811523 20.31420898 C33.6252771 22.19861694 33.6252771 22.19861694 33.68359375 24.12109375 C33.73858032 26.06133423 33.73858032 26.06133423 33.79467773 28.04077148 C33.6667278 30.88555008 33.6667278 30.88555008 35 32 C36.99964982 32.08758003 39.0023611 32.10696576 41.00390625 32.09765625 C42.21884766 32.09443359 43.43378906 32.09121094 44.68554688 32.08789062 C45.96494141 32.07951172 47.24433594 32.07113281 48.5625 32.0625 C50.48739258 32.05573242 50.48739258 32.05573242 52.45117188 32.04882812 C55.63416022 32.03699545 58.81705762 32.02051068 62 32 C59.739288 47.01069908 55.33921673 61.25627824 44 72 C44.84201088 68.07061591 45.83380637 65.04957427 48.875 62.3125 C55.63985483 54.95074622 56.46397559 44.48378707 58 35 C57.0409375 35.24363281 57.0409375 35.24363281 56.0625 35.4921875 C52.02124512 36.16229354 48.08863816 36.1449122 44 36.125 C42.80890625 36.13080078 42.80890625 36.13080078 41.59375 36.13671875 C37.5970522 36.13005759 33.90052465 35.99085908 30 35 C29.34 36.32 28.68 37.64 28 39 C27.67 38.34 27.34 37.68 27 37 C27.9375 34.875 27.9375 34.875 29 33 C29.66 33 30.32 33 31 33 C30.91621094 32.27039063 30.83242187 31.54078125 30.74609375 30.7890625 C29.79534013 21.04082915 30.3287638 11.77021576 31 2 C20.77 2 10.54 2 0 2 C0 1.34 0 0.68 0 0 Z " fill="#2B9AAD" transform="translate(98,160)"/>
<path d="M0 0 C0.598125 0.639375 1.19625 1.27875 1.8125 1.9375 C3.90810337 4.20310389 3.90810337 4.20310389 7 5 C8.84399021 6.9466718 10.49469912 9.00800719 12.18359375 11.08984375 C14.02321723 13.02441554 15.55756696 13.97471492 18 15 C18 15.66 18 16.32 18 17 C18.66 17 19.32 17 20 17 C20.495 17.7425 20.99 18.485 21.5 19.25 C24.57438986 22.63182885 27.41770081 23.60625518 31.66015625 25.10546875 C34 26 34 26 37 28 C37 28.99 37 29.98 37 31 C37.598125 30.79375 38.19625 30.5875 38.8125 30.375 C41 30 41 30 44 32 C44 32.99 44 33.98 44 35 C45.2375 35.061875 46.475 35.12375 47.75 35.1875 C51.24327767 35.6002859 51.79167429 35.77478302 54.3125 38.5 C54.869375 39.325 55.42625 40.15 56 41 C56.99 41.33 57.98 41.66 59 42 C59 42.66 59 43.32 59 44 C59.66 44.185625 60.32 44.37125 61 44.5625 C64.59615075 46.28565557 67.11186975 48.56593207 70.03515625 51.24609375 C71.9822037 53.04597014 71.9822037 53.04597014 74.2109375 54.58984375 C76.38816026 56.30595165 76.38971528 57.38449405 77 60 C78.485 60.495 78.485 60.495 80 61 C82.07414739 64.52275826 83.1105296 67.93891582 82.6875 72 C82.460625 72.66 82.23375 73.32 82 74 C80.94416538 71.91699596 79.92269569 69.82975681 78.95703125 67.703125 C72.24293336 53.3124988 60.74121086 46.42162576 47.375 38.6875 C45.43930705 37.55344281 43.50441681 36.41801446 41.5703125 35.28125 C40.62704102 34.72695312 39.68376953 34.17265625 38.71191406 33.6015625 C5.95239126 14.25492318 5.95239126 14.25492318 0 2 C0 1.34 0 0.68 0 0 Z " fill="#26879D" transform="translate(18,123)"/>
<path d="M0 0 C10.56 0 21.12 0 32 0 C32.0825 3.25875 32.165 6.5175 32.25 9.875 C32.55092948 17.56784115 33.05823124 24.21218881 37 31 C37.53625 32.0725 38.0725 33.145 38.625 34.25 C43.24441035 39.59879094 50.05345869 43.60190555 57.13671875 44.31640625 C58.30847656 44.39761719 59.48023438 44.47882813 60.6875 44.5625 C61.86699219 44.64628906 63.04648438 44.73007813 64.26171875 44.81640625 C65.61716797 44.90728516 65.61716797 44.90728516 67 45 C67 45.33 67 45.66 67 46 C54.27403999 46.47656161 47.83319047 45.03216401 38 37 C36.6078125 35.948125 36.6078125 35.948125 35.1875 34.875 C28.20378529 25.69640353 29.75290363 12.87224034 30 2 C20.43 2 10.86 2 1 2 C1.28875 5.691875 1.5775 9.38375 1.875 13.1875 C1.96120605 14.3427417 2.04741211 15.4979834 2.13623047 16.68823242 C2.21244629 17.60967041 2.28866211 18.5311084 2.3671875 19.48046875 C2.44050293 20.41785889 2.51381836 21.35524902 2.58935547 22.32104492 C3.02010115 25.13113552 3.88116321 27.39676588 5 30 C5.49313497 32.66572015 5.72523632 35.29815717 6 38 C5.01 38.495 5.01 38.495 4 39 C-1.68662145 26.45896877 -0.2767391 13.49103102 0 0 Z " fill="#207594" transform="translate(9,183)"/>
<path d="M0 0 C12.77512932 12.56078151 19.22716504 27.52614693 19.49609375 45.47265625 C19.50916028 49.16961357 19.48133471 52.86577294 19.4375 56.5625 C17.43410625 53.55740938 17.13527136 52.57199359 16.83984375 49.140625 C16.76056641 48.27953125 16.68128906 47.4184375 16.59960938 46.53125 C16.52548828 45.6340625 16.45136719 44.736875 16.375 43.8125 C16.21881918 42.04675317 16.06129129 40.28112492 15.90234375 38.515625 C15.82741699 37.67451172 15.75249023 36.83339844 15.67529297 35.96679688 C15.3633582 32.81286098 14.92097283 29.69437708 14.4375 26.5625 C13.7775 26.5625 13.1175 26.5625 12.4375 26.5625 C11.9425 22.6025 11.9425 22.6025 11.4375 18.5625 C10.7775 18.5625 10.1175 18.5625 9.4375 18.5625 C8.9425 15.5925 8.9425 15.5925 8.4375 12.5625 C7.7775 12.5625 7.1175 12.5625 6.4375 12.5625 C5.9425 10.5825 5.9425 10.5825 5.4375 8.5625 C4.7775 8.5625 4.1175 8.5625 3.4375 8.5625 C3.4375 7.9025 3.4375 7.2425 3.4375 6.5625 C2.1175 6.2325 0.7975 5.9025 -0.5625 5.5625 C-0.5625 4.9025 -0.5625 4.2425 -0.5625 3.5625 C-1.2225 3.2325 -1.8825 2.9025 -2.5625 2.5625 C-2.5625 1.9025 -2.5625 1.2425 -2.5625 0.5625 C-3.2225 0.5625 -3.8825 0.5625 -4.5625 0.5625 C-4.5625 -0.0975 -4.5625 -0.7575 -4.5625 -1.4375 C-5.614375 -1.80875 -5.614375 -1.80875 -6.6875 -2.1875 C-9.5625 -3.4375 -9.5625 -3.4375 -12.6875 -5.5625 C-15.40924154 -7.71063389 -15.40924154 -7.71063389 -18.5625 -7.4375 C-18.5625 -8.0975 -18.5625 -8.7575 -18.5625 -9.4375 C-19.18125 -9.23125 -19.8 -9.025 -20.4375 -8.8125 C-21.13875 -8.68875 -21.84 -8.565 -22.5625 -8.4375 C-23.2225 -9.0975 -23.8825 -9.7575 -24.5625 -10.4375 C-25.8825 -10.4375 -27.2025 -10.4375 -28.5625 -10.4375 C-28.5625 -11.0975 -28.5625 -11.7575 -28.5625 -12.4375 C-32.1925 -12.4375 -35.8225 -12.4375 -39.5625 -12.4375 C-39.5625 -12.7675 -39.5625 -13.0975 -39.5625 -13.4375 C-25.37487595 -16.59030534 -10.5577671 -9.17366958 0 0 Z " fill="#50B6B2" transform="translate(111.5625,47.4375)"/>
<path d="M0 0 C2.7289829 2.12768158 3.72294764 4.84074155 5 8 C5.25120605 8.60553711 5.50241211 9.21107422 5.76123047 9.83496094 C7.1437957 13.17364823 8.47936183 16.52541977 9.765625 19.90234375 C10.69427262 22.82597883 10.69427262 22.82597883 12 24 C12.04080783 25.99958364 12.04254356 28.00045254 12 30 C8.20740212 28.10370106 7.58054926 22.72593086 6.21875 18.90625 C5.32566599 15.8912137 5.32566599 15.8912137 3 15 C1.96484375 12.75 1.96484375 12.75 0.9375 10 C-0.11428072 6.74402427 -0.11428072 6.74402427 -2 4 C-8.86316733 3.34154114 -14.93822948 4.22121418 -21.4921875 6.24609375 C-23.97967161 6.99388882 -26.4471772 7.52878002 -29 8 C-26.65276062 5.31524908 -24.43528366 4.15282986 -21.125 2.875 C-20.28195313 2.54242188 -19.43890625 2.20984375 -18.5703125 1.8671875 C-12.62277054 -0.13943 -6.21345542 -1.2220109 0 0 Z " fill="#EAB053" transform="translate(186,36)"/>
<path d="M0 0 C0.66 0 1.32 0 2 0 C2.54269531 1.16917969 3.08539063 2.33835938 3.64453125 3.54296875 C4.36704494 5.09121237 5.08970913 6.63938576 5.8125 8.1875 C6.34713867 9.34088867 6.34713867 9.34088867 6.89257812 10.51757812 C8.74854571 14.48492168 10.69386762 18.26949173 13 22 C14.04809681 24.32404075 15.04150431 26.63993043 16 29 C16.35578125 29.85851562 16.7115625 30.71703125 17.078125 31.6015625 C20 38.74163732 20 38.74163732 20 41 C20.66 41 21.32 41 22 41 C24.52484999 44.53871462 25.72886591 48.023889 26.875 52.1875 C28.42813269 57.51166303 30.41465271 62.15724613 33.14453125 66.9765625 C34 69 34 69 33 72 C27.23444183 60.06946736 21.54193074 48.11713907 16.14160156 36.01635742 C12.84751179 28.63584383 9.43349312 21.31661034 6 14 C4.85039384 11.54338595 3.7055466 9.08468672 2.5625 6.625 C2.06878906 5.56539062 1.57507813 4.50578125 1.06640625 3.4140625 C0 1 0 1 0 0 Z " fill="#DB7E3A" transform="translate(216,180)"/>
<path d="M0 0 C9.57 0 19.14 0 29 0 C29 30.03 29 60.06 29 91 C27.515 90.505 27.515 90.505 26 90 C26.33 89.67 26.66 89.34 27 89 C27.12516637 86.26194796 27.18607673 83.54788281 27.20532227 80.80834961 C27.22017166 79.52065926 27.22017166 79.52065926 27.23532104 78.20695496 C27.26703309 75.35544641 27.29173164 72.50392118 27.31640625 69.65234375 C27.33696741 67.68078669 27.35796365 65.70923412 27.37937927 63.73768616 C27.43468653 58.53778715 27.4840575 53.3378478 27.53222656 48.13787842 C27.58237857 42.83602286 27.63809744 37.5342262 27.69335938 32.23242188 C27.80104675 21.82166293 27.90195392 11.41085421 28 1 C15.625 1.495 15.625 1.495 3 2 C2.34 4.31 1.68 6.62 1 9 C0.67 9 0.34 9 0 9 C0 6.03 0 3.06 0 0 Z " fill="#F47227" transform="translate(162,162)"/>
<path d="M0 0 C7.36259293 -0.22424141 13.87049629 0.09879901 21 2 C21 2.66 21 3.32 21 4 C21.66 4 22.32 4 23 4 C24.5859375 5.43359375 24.5859375 5.43359375 26.375 7.4375 C26.96023437 8.07558594 27.54546875 8.71367188 28.1484375 9.37109375 C33.38845772 16.81103807 34.57548411 23.39353629 34.390625 32.37890625 C34.38496521 33.43158188 34.37930542 34.48425751 34.37347412 35.5688324 C34.35124884 38.90053574 34.30107768 42.2311268 34.25 45.5625 C34.22991714 47.83396874 34.21166951 50.1054545 34.1953125 52.37695312 C34.15142971 57.91834232 34.08465777 63.45909166 34 69 C33.67 69 33.34 69 33 69 C32.98541748 67.78006348 32.97083496 66.56012695 32.95581055 65.30322266 C32.89743073 60.73685757 32.82020304 56.17096531 32.73754883 51.60498047 C32.70448495 49.63630908 32.67639655 47.66754711 32.65356445 45.69873047 C32.61967492 42.85345186 32.56734529 40.00898961 32.51171875 37.1640625 C32.50532883 36.29697662 32.4989389 35.42989075 32.49235535 34.53652954 C32.23991919 23.82247372 29.15874824 14.01211137 21.359375 6.3984375 C15.19806754 1.81763934 7.4050572 1.6460141 0 1 C0 0.67 0 0.34 0 0 Z " fill="#58B5BB" transform="translate(66,63)"/>
<path d="M0 0 C4.38665381 2.33709119 8.01134168 5.24589571 11.19921875 9.05078125 C11.19921875 9.71078125 11.19921875 10.37078125 11.19921875 11.05078125 C9.19921875 11.05078125 9.19921875 11.05078125 7.07421875 9.17578125 C5.19921875 7.05078125 5.19921875 7.05078125 5.19921875 5.05078125 C-4.74852345 0.83052698 -12.54158006 0.11958091 -22.80078125 3.05078125 C-22.80078125 3.71078125 -22.80078125 4.37078125 -22.80078125 5.05078125 C-23.79078125 5.05078125 -24.78078125 5.05078125 -25.80078125 5.05078125 C-26.46078125 6.37078125 -27.12078125 7.69078125 -27.80078125 9.05078125 C-27.16986572 9.10089355 -26.5389502 9.15100586 -25.88891602 9.20263672 C-23.04614374 9.43391844 -20.2048047 9.67965058 -17.36328125 9.92578125 C-16.37005859 10.00441406 -15.37683594 10.08304688 -14.35351562 10.1640625 C-13.40927734 10.24785156 -12.46503906 10.33164063 -11.4921875 10.41796875 C-10.61763916 10.49128418 -9.74309082 10.56459961 -8.84204102 10.64013672 C-8.16842529 10.77564941 -7.49480957 10.91116211 -6.80078125 11.05078125 C-6.47078125 11.71078125 -6.14078125 12.37078125 -5.80078125 13.05078125 C-18.67078125 12.55578125 -18.67078125 12.55578125 -31.80078125 12.05078125 C-30.79189261 8.0152267 -30.57911393 7.44344075 -27.61328125 4.98828125 C-27.04222656 4.50230469 -26.47117188 4.01632813 -25.8828125 3.515625 C-18.18082798 -1.90321965 -9.01195013 -3.05425925 0 0 Z " fill="#E45F12" transform="translate(164.80078125,85.94921875)"/>
<path d="M0 0 C2.36008817 3.54013225 2.23463644 5.01121955 2.1953125 9.19921875 C2.19031738 10.28807373 2.18532227 11.37692871 2.18017578 12.4987793 C2.15286377 14.57219604 2.15286377 14.57219604 2.125 16.6875 C2.08375 21.080625 2.0425 25.47375 2 30 C-8.23 30 -18.46 30 -29 30 C-29 29.34 -29 28.68 -29 28 C-19.43 28 -9.86 28 0 28 C0 18.76 0 9.52 0 0 Z " fill="#2AA1AF" transform="translate(129,101)"/>
<path d="M0 0 C0.46148437 0.35191406 0.92296875 0.70382813 1.3984375 1.06640625 C11.37646313 8.61894344 21.52053255 15.13663548 32.52148438 21.10546875 C49.06289589 30.24473692 49.06289589 30.24473692 50.69799805 35.05224609 C50.8849096 37.25432149 50.79755891 39.24160782 50.5625 41.4375 C50.5015918 42.53481445 50.5015918 42.53481445 50.43945312 43.65429688 C50.33446332 45.43912352 50.17303843 47.22048133 50 49 C49.67 49 49.34 49 49 49 C49.04382813 47.99839844 49.08765625 46.99679688 49.1328125 45.96484375 C49.31487434 38.47706104 49.31487434 38.47706104 46.375 31.83203125 C43.68739733 29.94231062 40.92774971 28.49714474 38 27 C36.41103015 26.0694544 34.82816136 25.12844828 33.25 24.1796875 C29.91049941 22.18429595 26.56787793 20.19691788 23.1953125 18.2578125 C22.48391113 17.8467627 21.77250977 17.43571289 21.03955078 17.01220703 C19.03870538 15.92700628 19.03870538 15.92700628 16.85498047 15.47216797 C14.13999202 14.78109299 12.93522635 12.99214477 11 11 C10.030625 10.360625 9.06125 9.72125 8.0625 9.0625 C4.95177793 6.96752391 2.49784648 4.79171077 0 2 C0 1.34 0 0.68 0 0 Z " fill="#2A99A7" transform="translate(47,110)"/>
<path d="M0 0 C2.125 0.9375 2.125 0.9375 4 2 C-5.11379142 11.07179239 -22.9595232 25 -37 25 C-37 24.34 -37 23.68 -37 23 C-32.38 21.35 -27.76 19.7 -23 18 C-23 17.34 -23 16.68 -23 16 C-21.02 16 -19.04 16 -17 16 C-16.67 15.01 -16.34 14.02 -16 13 C-15.01 13 -14.02 13 -13 13 C-12.67 12.01 -12.34 11.02 -12 10 C-10.68 10 -9.36 10 -8 10 C-8 9.01 -8 8.02 -8 7 C-6.68 7 -5.36 7 -4 7 C-3.71125 6.030625 -3.4225 5.06125 -3.125 4.0625 C-2 1 -2 1 0 0 Z " fill="#1F7692" transform="translate(138,231)"/>
<path d="M0 0 C1.08286726 3.49000529 1.08606123 6.66420399 1.02734375 10.3046875 C1.01509766 11.52800781 1.00285156 12.75132813 0.99023438 14.01171875 C0.95518398 16.57948498 0.91614568 19.14719999 0.87304688 21.71484375 C0.86208984 22.94074219 0.85113281 24.16664062 0.83984375 25.4296875 C0.82300537 26.54585449 0.80616699 27.66202148 0.78881836 28.81201172 C1.01290884 32.19487127 1.80654118 34.83941493 3 38 C3.54939444 39.78931215 4.09160506 41.58085339 4.625 43.375 C4.88539062 44.24898437 5.14578125 45.12296875 5.4140625 46.0234375 C5.60742188 46.67570312 5.80078125 47.32796875 6 48 C3.16060835 45.57316953 2.14623953 43.25387655 0.9375 39.75 C0.61652344 38.83734375 0.29554687 37.9246875 -0.03515625 36.984375 C-0.35355469 35.99953125 -0.67195312 35.0146875 -1 34 C-1.36351562 32.89785156 -1.72703125 31.79570313 -2.1015625 30.66015625 C-3.10783991 26.56066959 -3.34290718 22.88701611 -3.3125 18.6875 C-3.31121094 17.94636963 -3.30992188 17.20523926 -3.30859375 16.44165039 C-3.20675906 10.60588617 -2.23846338 5.42294401 0 0 Z " fill="#2F98AC" transform="translate(12,75)"/>
<path d="M0 0 C0.33 0 0.66 0 1 0 C1.01401855 0.87567627 1.01401855 0.87567627 1.02832031 1.76904297 C0.99773619 16.94535169 0.99773619 16.94535169 6 31 C6.53625 32.0725 7.0725 33.145 7.625 34.25 C12.24441035 39.59879094 19.05345869 43.60190555 26.13671875 44.31640625 C27.30847656 44.39761719 28.48023438 44.47882813 29.6875 44.5625 C30.86699219 44.64628906 32.04648438 44.73007813 33.26171875 44.81640625 C34.61716797 44.90728516 34.61716797 44.90728516 36 45 C36 45.33 36 45.66 36 46 C21.52243051 46.54215586 15.08880141 43.68205334 4.125 34.625 C-1.14787643 28.11144677 -0.24855362 19.44544819 -0.125 11.5 C-0.11597656 10.39140625 -0.10695312 9.2828125 -0.09765625 8.140625 C-0.07426167 5.42685408 -0.04148175 2.71354455 0 0 Z " fill="#37819A" transform="translate(40,183)"/>
<path d="M0 0 C2.43192269 7.29576806 -2.47223425 17.09799803 -5.39453125 23.88671875 C-8.35969887 29.63669099 -12.15766102 34.80991249 -16 40 C-17 37 -17 37 -15.8125 34.5625 C-14 32 -14 32 -12.04296875 30.140625 C-5.14774094 22.91579739 -3.3229011 11.37763776 -1 2 C-8.92 2 -16.84 2 -25 2 C-25 1.67 -25 1.34 -25 1 C-12.625 0.505 -12.625 0.505 0 0 Z " fill="#3C95A2" transform="translate(159,192)"/>
<path d="M0 0 C0 0.66 0 1.32 0 2 C-8.49153231 4.43162255 -16.82035627 4.22729244 -25.5625 4.125 C-27.06314506 4.11494923 -28.56379665 4.10582709 -30.06445312 4.09765625 C-33.70977281 4.07581091 -37.35484376 4.0413969 -41 4 C-41 3.34 -41 2.68 -41 2 C-42.32 1.67 -43.64 1.34 -45 1 C-43.96166016 1.10828125 -43.96166016 1.10828125 -42.90234375 1.21875 C-30.13996276 2.42941065 -17.83765387 2.23306492 -5.16796875 0.4375 C-2 0 -2 0 0 0 Z " fill="#166E90" transform="translate(101,254)"/>
<path d="M0 0 C2.38184153 2.15307709 3.64680981 4.04364839 4.875 7 C5.38353516 8.19496094 5.38353516 8.19496094 5.90234375 9.4140625 C6.26457031 10.26742187 6.62679687 11.12078125 7 12 C7.80708582 13.79411209 8.61976218 15.58571787 9.4375 17.375 C9.85128906 18.29023438 10.26507813 19.20546875 10.69140625 20.1484375 C11.59659801 22.12094491 12.52250714 24.08402815 13.46484375 26.0390625 C14.16287109 27.50472656 14.16287109 27.50472656 14.875 29 C15.30554688 29.886875 15.73609375 30.77375 16.1796875 31.6875 C17 34 17 34 16 37 C13.51106696 34.51106696 12.88508936 32.30799927 11.6875 29 C9.7486981 23.79524014 7.55507009 18.9081606 4.91796875 14.0234375 C4 12 4 12 4 9 C3.34 9 2.68 9 2 9 C0.50178941 5.62902617 0 3.79557881 0 0 Z " fill="#E19C50" transform="translate(226,126)"/>
<path d="M0 0 C0.66 0 1.32 0 2 0 C3.34106405 2.6821281 3.21450419 4.88398032 3.31640625 7.8828125 C3.35830078 9.04941406 3.40019531 10.21601562 3.44335938 11.41796875 C3.48267578 12.64128906 3.52199219 13.86460938 3.5625 15.125 C3.60568359 16.35605469 3.64886719 17.58710937 3.69335938 18.85546875 C3.79968704 21.90352853 3.90171781 24.9516719 4 28 C7.3789982 29.00158069 10.56276528 29.19578116 14.078125 29.31640625 C15.23828125 29.35830078 16.3984375 29.40019531 17.59375 29.44335938 C18.8003125 29.48267578 20.006875 29.52199219 21.25 29.5625 C23.08304688 29.62727539 23.08304688 29.62727539 24.953125 29.69335938 C27.9686392 29.79937355 30.98423448 29.90143936 34 30 C34 30.33 34 30.66 34 31 C23.44 31 12.88 31 2 31 C1.5625 17.1875 1.5625 17.1875 1.43188477 12.84057617 C1.39377686 11.71111572 1.35566895 10.58165527 1.31640625 9.41796875 C1.27974854 8.26063232 1.24309082 7.1032959 1.20532227 5.91088867 C1.11671491 2.9356554 1.11671491 2.9356554 0 0 Z " fill="#E1762E" transform="translate(159,99)"/>
<path d="M0 0 C9.57 0 19.14 0 29 0 C29 6.93 29 13.86 29 21 C28.67 21 28.34 21 28 21 C28 14.4 28 7.8 28 1 C15.625 1.495 15.625 1.495 3 2 C2.34 4.31 1.68 6.62 1 9 C0.67 9 0.34 9 0 9 C0 6.03 0 3.06 0 0 Z " fill="#F58029" transform="translate(162,162)"/>
<path d="M0 0 C0.33 0 0.66 0 1 0 C1 16.5 1 33 1 50 C0.01 50 -0.98 50 -2 50 C-1.67 49.01 -1.34 48.02 -1 47 C-0.94068412 44.96698428 -0.93916941 42.93210322 -0.96875 40.8984375 C-1.00840228 35.39668329 -0.95100009 29.91325818 -0.78125 24.4140625 C-0.75901367 23.69353699 -0.73677734 22.97301147 -0.71386719 22.23065186 C-0.6442038 20.02871238 -0.57216827 17.82685865 -0.5 15.625 C-0.45162143 14.09896471 -0.40344331 12.57292305 -0.35546875 11.046875 C-0.23927964 7.36450735 -0.12041393 3.68223221 0 0 Z " fill="#F57527" transform="translate(279,203)"/>
<path d="M0 0 C3.44795223 1.53242321 6.2199038 3.44531701 9 6 C9.625 8.1875 9.625 8.1875 10 10 C10.99 10.33 11.98 10.66 13 11 C15.07414739 14.52275826 16.1105296 17.93891582 15.6875 22 C15.460625 22.66 15.23375 23.32 15 24 C13.94869552 21.93054027 12.93710851 19.8588598 11.9921875 17.73828125 C9.28332331 11.85644677 6.03426938 7.40572879 1.57421875 2.71484375 C0 1 0 1 0 0 Z " fill="#218298" transform="translate(85,173)"/>
<path d="M0 0 C0.99 0.66 1.98 1.32 3 2 C2.01 2 1.02 2 0 2 C-0.66 3.32 -1.32 4.64 -2 6 C-1.36908447 6.0501123 -0.73816895 6.10022461 -0.08813477 6.15185547 C2.75463751 6.38313719 5.59597655 6.62886933 8.4375 6.875 C9.92733398 6.99294922 9.92733398 6.99294922 11.44726562 7.11328125 C12.86362305 7.23896484 12.86362305 7.23896484 14.30859375 7.3671875 C15.18314209 7.44050293 16.05769043 7.51381836 16.95874023 7.58935547 C17.96916382 7.79262451 17.96916382 7.79262451 19 8 C19.33 8.66 19.66 9.32 20 10 C7.13 9.505 7.13 9.505 -6 9 C-4.86634892 4.46539569 -3.35806626 3.09975347 0 0 Z " fill="#DB6225" transform="translate(139,89)"/>
<path d="M0 0 C2.09627325 2.09627325 2.89647568 3.94792239 4.00390625 6.65625 C5.80622843 10.89700808 7.8231043 15.04203804 9.79296875 19.20703125 C11 22 11 22 11 24 C10.01 23.67 9.02 23.34 8 23 C8 22.01 8 21.02 8 20 C7.34 20 6.68 20 6 20 C5.81824219 19.38511719 5.63648438 18.77023438 5.44921875 18.13671875 C5.19785156 17.32847656 4.94648438 16.52023438 4.6875 15.6875 C4.32205078 14.48673828 4.32205078 14.48673828 3.94921875 13.26171875 C3.15224094 10.94357351 3.15224094 10.94357351 1.40625 9.46875 C0 8 0 8 -0.29296875 5.95703125 C-0.1953125 3.97135417 -0.09765625 1.98567708 0 0 Z " fill="#E8B158" transform="translate(198,62)"/>
<path d="M0 0 C0 0.99 0 1.98 0 3 C-0.33 2.67 -0.66 2.34 -1 2 C-7.86316733 1.34154114 -13.93822948 2.22121418 -20.4921875 4.24609375 C-22.97967161 4.99388882 -25.4471772 5.52878002 -28 6 C-24.04036439 1.10868543 -18.45765726 -0.11167958 -12.5 -0.75 C-8.14169551 -1.05658418 -4.27647803 -0.85529561 0 0 Z " fill="#F2A42D" transform="translate(185,38)"/>
<path d="M0 0 C2 3 2 3 1.8125 5.1875 C-0.45747068 13.04509082 -2.83470644 20.34255918 -10 25 C-10.99 24.67 -11.98 24.34 -13 24 C-12.54109375 23.5875 -12.0821875 23.175 -11.609375 22.75 C-4.51263643 16.07071664 -1.67469589 9.51932398 0 0 Z " fill="#1D7398" transform="translate(100,200)"/>
<path d="M0 0 C0.33 0.66 0.66 1.32 1 2 C0.02160156 1.96519531 -0.95679687 1.93039063 -1.96484375 1.89453125 C-12.34590487 1.68017306 -19.80439965 3.04852289 -29 8 C-28.34 6.02 -27.68 4.04 -27 2 C-25.906875 1.855625 -24.81375 1.71125 -23.6875 1.5625 C-20.06877013 1.11711896 -20.06877013 1.11711896 -17 0 C-14.85876776 -0.25125281 -12.71164963 -0.45423896 -10.5625 -0.625 C-9.42941406 -0.72039063 -8.29632813 -0.81578125 -7.12890625 -0.9140625 C-4.42947997 -0.98820405 -2.49755417 -0.98012764 0 0 Z " fill="#34AAB2" transform="translate(80,62)"/>
<path d="M0 0 C0.88365234 0.00451172 1.76730469 0.00902344 2.67773438 0.01367188 C4.84768559 0.02540134 7.01760172 0.04333505 9.1875 0.0625 C9.1875 0.3925 9.1875 0.7225 9.1875 1.0625 C6.12602743 1.56892925 3.06317701 2.06649322 0 2.5625 C-0.86431641 2.70558594 -1.72863281 2.84867188 -2.61914062 2.99609375 C-6.71776577 3.65564262 -10.64476024 4.26959266 -14.8125 4.0625 C-14.8125 3.0725 -14.8125 2.0825 -14.8125 1.0625 C-9.89747242 -0.22985715 -5.03959898 -0.04885517 0 0 Z " fill="#30B0B7" transform="translate(69.8125,32.9375)"/>
<path d="M0 0 C0.99 0.495 0.99 0.495 2 1 C1.67 4.63 1.34 8.26 1 12 C1.66 12 2.32 12 3 12 C2.835 13.134375 2.67 14.26875 2.5 15.4375 C1.92423916 19.97060294 1.90494734 24.43747238 2 29 C1.67 29 1.34 29 1 29 C-0.30433619 23.06372979 -0.11086318 17.16667748 -0.0625 11.125 C-0.05798828 10.05507812 -0.05347656 8.98515625 -0.04882812 7.8828125 C-0.03709749 5.25515014 -0.02068228 2.62760462 0 0 Z " fill="#16B1C2" transform="translate(100,97)"/>
<path d="M0 0 C0.33 0 0.66 0 1 0 C1 3.63 1 7.26 1 11 C8.92 11 16.84 11 25 11 C25 11.33 25 11.66 25 12 C24.28344238 12.02505615 23.56688477 12.0501123 22.82861328 12.07592773 C19.59388486 12.19169751 16.35946159 12.31450969 13.125 12.4375 C11.99707031 12.47681641 10.86914062 12.51613281 9.70703125 12.55664062 C8.63066406 12.59853516 7.55429688 12.64042969 6.4453125 12.68359375 C4.95281982 12.73858032 4.95281982 12.73858032 3.43017578 12.79467773 C0.99220499 12.84959532 0.99220499 12.84959532 -1 14 C-1.18451025 4.58997722 -1.18451025 4.58997722 0 0 Z " fill="#DD9F7B" transform="translate(132,87)"/>
<path d="M0 0 C0 0.66 0 1.32 0 2 C-0.99580078 2.45439453 -0.99580078 2.45439453 -2.01171875 2.91796875 C-7.21175565 5.38513954 -11.11624513 7.64548696 -15 12 C-15.99 12.66 -16.98 13.32 -18 14 C-19.01868662 14.98095748 -20.02351983 15.97702078 -21 17 C-21.33 16.01 -21.66 15.02 -22 14 C-7.17159763 0 -7.17159763 0 0 0 Z " fill="#34AAB6" transform="translate(47,37)"/>
<path d="M0 0 C0.96661363 3.12180401 0.98988909 5.52083795 0.5625 8.75 C0.46066406 9.54921875 0.35882813 10.3484375 0.25390625 11.171875 C0.17011719 11.77515625 0.08632812 12.3784375 0 13 C0.61875 12.505 1.2375 12.01 1.875 11.5 C4 10 4 10 6 10 C6 9.34 6 8.68 6 8 C7.98 7.34 9.96 6.68 12 6 C12.33 6.66 12.66 7.32 13 8 C12.40832031 8.31453125 11.81664062 8.6290625 11.20703125 8.953125 C10.02173828 9.59507813 10.02173828 9.59507813 8.8125 10.25 C8.03519531 10.66765625 7.25789062 11.0853125 6.45703125 11.515625 C3.77080283 13.1384657 1.41113532 14.995717 -1 17 C-1.02699725 14.72923158 -1.04639453 12.45837179 -1.0625 10.1875 C-1.07990234 8.29064453 -1.07990234 8.29064453 -1.09765625 6.35546875 C-1 3 -1 3 0 0 Z " fill="#F38E33" transform="translate(134,78)"/>
<path d="M0 0 C0.66 0 1.32 0 2 0 C2.21914062 0.49886719 2.43828125 0.99773437 2.6640625 1.51171875 C2.98117188 2.22972656 3.29828125 2.94773438 3.625 3.6875 C3.98207031 4.49832031 4.33914062 5.30914062 4.70703125 6.14453125 C5.65513555 8.23838092 6.63657977 10.31721876 7.63671875 12.38671875 C8.18972656 13.53785156 8.74273437 14.68898437 9.3125 15.875 C9.84488281 16.96554688 10.37726563 18.05609375 10.92578125 19.1796875 C12 22 12 22 11 25 C9.16038326 21.21135025 7.32937928 17.41860225 5.5 13.625 C4.97535156 12.54476562 4.45070312 11.46453125 3.91015625 10.3515625 C3.16572266 8.8046875 3.16572266 8.8046875 2.40625 7.2265625 C1.71499023 5.79691162 1.71499023 5.79691162 1.00976562 4.33837891 C0 2 0 2 0 0 Z " fill="#D6773E" transform="translate(238,227)"/>
<path d="M0 0 C0.66 0.33 1.32 0.66 2 1 C0.92492371 2.29854721 -0.16043736 3.58858361 -1.25 4.875 C-1.85328125 5.59429687 -2.4565625 6.31359375 -3.078125 7.0546875 C-5 9 -5 9 -7.171875 10.0703125 C-9.36169337 10.91462673 -9.36169337 10.91462673 -10 14 C-10.33 13.34 -10.66 12.68 -11 12 C-7.72469104 7.36279281 -4.69564393 3.31457218 0 0 Z " fill="#D6F9FA" transform="translate(55,67)"/>
<path d="M0 0 C0.33 0 0.66 0 1 0 C1.28492089 4.93862882 1.16273008 7.22905259 -2 11 C-2.72351427 12.98014432 -3.40265389 14.97821315 -4 17 C-4.66 16.67 -5.32 16.34 -6 16 C-4.43551329 10.3856009 -2.83604813 5.13189662 0 0 Z " fill="#EE9D3F" transform="translate(141,60)"/>
<path d="M0 0 C0.99 0.495 0.99 0.495 2 1 C2 1.66 2 2.32 2 3 C2.66 3 3.32 3 4 3 C4 3.66 4 4.32 4 5 C5.3921875 4.7525 5.3921875 4.7525 6.8125 4.5 C13.49958603 3.55834911 19.88538914 2.94269457 26 6 C17.75 6 9.5 6 1 6 C0.67 4.02 0.34 2.04 0 0 Z " fill="#F26E26" transform="translate(249,247)"/>
<path d="M0 0 C1.98 0 3.96 0 6 0 C3.26285181 3.46566672 -0.57059135 4.65796074 -4.5625 6.1875 C-5.24763672 6.46013672 -5.93277344 6.73277344 -6.63867188 7.01367188 C-11.71152491 9 -11.71152491 9 -14 9 C-14 8.34 -14 7.68 -14 7 C-7.07 4.525 -7.07 4.525 0 2 C0 1.34 0 0.68 0 0 Z " fill="#2A7792" transform="translate(115,247)"/>
<path d="M0 0 C0.33 0.66 0.66 1.32 1 2 C1.99 2.33 2.98 2.66 4 3 C4 3.66 4 4.32 4 5 C4.7425 5.2475 5.485 5.495 6.25 5.75 C9.20124062 7.09147301 10.84814974 8.60905526 13 11 C9.23261628 11 8.07931975 9.87866382 5.0625 7.6875 C4.20785156 7.07261719 3.35320312 6.45773438 2.47265625 5.82421875 C0.3070588 4.22653469 -1.85126619 2.62027491 -4 1 C-2 0 -2 0 0 0 Z " fill="#338FA3" transform="translate(73,162)"/>
<path d="M0 0 C0.33 0 0.66 0 1 0 C1.01417969 0.66644531 1.02835938 1.33289063 1.04296875 2.01953125 C1.43482304 9.59185073 3.49484646 15.31304656 7 22 C6.34 22.33 5.68 22.66 5 23 C0.74967965 16.96728725 -0.13576958 13.57695763 -0.0625 6.25 C-0.05347656 5.07953125 -0.04445312 3.9090625 -0.03515625 2.703125 C-0.02355469 1.81109375 -0.01195312 0.9190625 0 0 Z " fill="#4AAAB7" transform="translate(41,88)"/>
<path d="M0 0 C0.66 0.66 1.32 1.32 2 2 C1.34 2 0.68 2 0 2 C-0.33 2.99 -0.66 3.98 -1 5 C-3 5.66666667 -5 6.33333333 -7 7 C-7.33 7.99 -7.66 8.98 -8 10 C-10.0625 10.6875 -10.0625 10.6875 -12 11 C-11.4375 8.6875 -11.4375 8.6875 -10 6 C-6.5625 4.375 -6.5625 4.375 -3 3 C-1.11970761 1.46048953 -1.11970761 1.46048953 0 0 Z " fill="#0E88AE" transform="translate(119,210)"/>
<path d="M0 0 C7.36259293 -0.22424141 13.87049629 0.09879901 21 2 C20.67 3.32 20.34 4.64 20 6 C19.33613281 5.52949219 18.67226562 5.05898437 17.98828125 4.57421875 C14.43471528 2.70220949 11.11878222 2.22255719 7.1875 1.8125 C6.14819336 1.6897168 6.14819336 1.6897168 5.08789062 1.56445312 C3.39313016 1.36575707 1.69669806 1.18140797 0 1 C0 0.67 0 0.34 0 0 Z " fill="#59BCBF" transform="translate(66,63)"/>
<path d="M0 0 C2.643915 1.3219575 2.97744456 2.23095607 4 5 C4.1953125 8.453125 4.1953125 8.453125 4.125 12.25 C4.10695313 13.51328125 4.08890625 14.7765625 4.0703125 16.078125 C4.04710938 17.04234375 4.02390625 18.0065625 4 19 C3.67 19 3.34 19 3 19 C2.49666458 16.39643759 1.99720622 13.79223349 1.5 11.1875 C1.35691406 10.44951172 1.21382813 9.71152344 1.06640625 8.95117188 C0.49073719 5.92205609 0 3.090804 0 0 Z " fill="#33A9AF" transform="translate(96,79)"/>
<path d="M0 0 C0.44730469 0.39832031 0.89460938 0.79664063 1.35546875 1.20703125 C4.13848965 3.64588325 6.74827906 5.85003859 9.9375 7.75 C10.9584375 8.36875 10.9584375 8.36875 12 9 C12 9.66 12 10.32 12 11 C12.66 11 13.32 11 14 11 C13.67 11.66 13.34 12.32 13 13 C8.32873203 9.62695042 3.83910692 6.31899529 0 2 C0 1.34 0 0.68 0 0 Z " fill="#118AA8" transform="translate(24,129)"/>
<path d="M0 0 C2 1 2 1 2.81640625 3.36328125 C3.06261719 4.33652344 3.30882812 5.30976562 3.5625 6.3125 C3.81128906 7.27800781 4.06007813 8.24351563 4.31640625 9.23828125 C4.54199219 10.14964844 4.76757812 11.06101562 5 12 C5.29197266 13.16595703 5.29197266 13.16595703 5.58984375 14.35546875 C5.72519531 14.89816406 5.86054688 15.44085938 6 16 C3.07699862 13.52216837 2.02659673 11.0148289 0.75 7.4375 C0.39421875 6.46683594 0.0384375 5.49617188 -0.328125 4.49609375 C-1 2 -1 2 0 0 Z " fill="#22889E" transform="translate(12,107)"/>
<path d="M0 0 C3.01330093 2.00886729 4.8128324 3.53742783 6 7 C6.125 10.25 6.125 10.25 6 13 C3.33753193 11.66876597 3.05398348 10.3235622 1.875 7.625 C1.52179688 6.83351563 1.16859375 6.04203125 0.8046875 5.2265625 C0 3 0 3 0 0 Z " fill="#EBA942" transform="translate(192,53)"/>
<path d="M0 0 C1.46184058 0.22860058 2.91955419 0.48370392 4.375 0.75 C5.59316406 0.95882812 5.59316406 0.95882812 6.8359375 1.171875 C9 2 9 2 10.2890625 4.078125 C10.64097656 5.02945313 10.64097656 5.02945313 11 6 C6.48986609 5.46939601 3.61621781 3.69113883 0 1 C0 0.67 0 0.34 0 0 Z " fill="#238399" transform="translate(60,157)"/>
<path d="M0 0 C0.66 0 1.32 0 2 0 C2.69699552 1.45381897 3.38233866 2.91322953 4.0625 4.375 C4.63677734 5.59316406 4.63677734 5.59316406 5.22265625 6.8359375 C5.47917969 7.55007812 5.73570312 8.26421875 6 9 C5.67 9.66 5.34 10.32 5 11 C1.87729874 8.48169253 1.05476902 7.2738451 0.25 3.25 C0.1675 2.1775 0.085 1.105 0 0 Z " fill="#F6A531" transform="translate(204,82)"/>
<path d="M0 0 C0 0.66 0 1.32 0 2 C-1.24176695 2.70226141 -2.49385599 3.38629109 -3.75 4.0625 C-4.79414063 4.63677734 -4.79414063 4.63677734 -5.859375 5.22265625 C-8.36140628 6.1312406 -9.5332355 5.88336837 -12 5 C-10.37750059 4.16180842 -8.75191503 3.3295884 -7.125 2.5 C-6.22007812 2.0359375 -5.31515625 1.571875 -4.3828125 1.09375 C-2 0 -2 0 0 0 Z " fill="#E8A74A" transform="translate(169,38)"/>
<path d="M0 0 C1.32 0.66 2.64 1.32 4 2 C1.03 4.475 1.03 4.475 -2 7 C-2.33 6.01 -2.66 5.02 -3 4 C-1 1 -1 1 0 0 Z " fill="#2886A0" transform="translate(138,231)"/>
<path d="M0 0 C2.53199972 2.53199972 3.11946497 4.54559335 4 8 C3.625 10.875 3.625 10.875 3 13 C0.60295435 8.84512088 0 4.75860702 0 0 Z " fill="#1E8AA7" transform="translate(97,184)"/>
<path d="M0 0 C0.33 0 0.66 0 1 0 C1.33 3.96 1.66 7.92 2 12 C1.01 12.66 0.02 13.32 -1 14 C-1.18451025 4.58997722 -1.18451025 4.58997722 0 0 Z " fill="#C8A16D" transform="translate(132,87)"/>
<path d="M0 0 C3.33773709 3.64116773 3.97864902 7.28607242 5 12 C0.02368421 7.18421053 0.02368421 7.18421053 -0.0625 2.875 C-0.041875 1.92625 -0.02125 0.9775 0 0 Z " fill="#E7B45E" transform="translate(190,44)"/>
<path d="M0 0 C0 0.99 0 1.98 0 3 C-0.66 3 -1.32 3 -2 3 C-2.33 3.99 -2.66 4.98 -3 6 C-5.475 5.01 -5.475 5.01 -8 4 C-5.33333333 2.66666667 -2.66666667 1.33333333 0 0 Z " fill="#2781A4" transform="translate(86,224)"/>
<path d="M0 0 C3.55007718 3.9050849 4.81819916 6.97734643 6 12 C3.34930567 9.52601863 1.28384156 7.42357749 0 4 C0 2.68 0 1.36 0 0 Z " fill="#276D8A" transform="translate(14,221)"/>
<path d="M0 0 C0.66 0 1.32 0 2 0 C1.25 5.75 1.25 5.75 -1 8 C-1.99 8 -2.98 8 -4 8 C-4 7.34 -4 6.68 -4 6 C-3.34 6 -2.68 6 -2 6 C-1.34 4.02 -0.68 2.04 0 0 Z " fill="#0F9BB8" transform="translate(128,195)"/>
<path d="M0 0 C0.33 0.66 0.66 1.32 1 2 C3.01669827 3.13350534 3.01669827 3.13350534 5 4 C5 4.66 5 5.32 5 6 C2.625 5.6875 2.625 5.6875 0 5 C-0.66 4.01 -1.32 3.02 -2 2 C-1.34 2 -0.68 2 0 2 C0 1.34 0 0.68 0 0 Z " fill="#257B9C" transform="translate(27,238)"/>
<path d="M0 0 C0.99 0 1.98 0 3 0 C2.95875 0.7425 2.9175 1.485 2.875 2.25 C3.00398134 5.08758952 3.57051222 6.58773938 5 9 C4.01 9 3.02 9 2 9 C0.50178941 5.62902617 0 3.79557881 0 0 Z " fill="#F57124" transform="translate(242,230)"/>
<path d="M0 0 C0.33 0.66 0.66 1.32 1 2 C1.66 2 2.32 2 3 2 C4.6875 4.3125 4.6875 4.3125 6 7 C5.67 7.99 5.34 8.98 5 10 C5 9.34 5 8.68 5 8 C4.01 7.67 3.02 7.34 2 7 C0.35179805 4.39757586 0 3.13751221 0 0 Z " fill="#E4742F" transform="translate(235,219)"/>
<path d="M0 0 C2 1 2 1 2.8515625 3.28515625 C3.10679687 4.20167969 3.36203125 5.11820313 3.625 6.0625 C3.88539063 6.98160156 4.14578125 7.90070313 4.4140625 8.84765625 C4.60742188 9.55792969 4.80078125 10.26820313 5 11 C1.87729874 8.48169253 1.05476902 7.2738451 0.25 3.25 C0.1675 2.1775 0.085 1.105 0 0 Z " fill="#E18C42" transform="translate(243,163)"/>
<path d="M0 0 C0.33 0.66 0.66 1.32 1 2 C-0.65 4.31 -2.3 6.62 -4 9 C-4.33 8.01 -4.66 7.02 -5 6 C-2.66666667 1.33333333 -2.66666667 1.33333333 0 0 Z " fill="#27839B" transform="translate(147,223)"/>
<path d="M0 0 C4.51478398 0.53115106 7.34666857 2.36620292 11 5 C8 6 8 6 5.95703125 5.0390625 C5.24933594 4.57242188 4.54164062 4.10578125 3.8125 3.625 C3.09707031 3.16351563 2.38164063 2.70203125 1.64453125 2.2265625 C1.10183594 1.82179687 0.55914062 1.41703125 0 1 C0 0.67 0 0.34 0 0 Z " fill="#298598" transform="translate(35,142)"/>
</svg>
